{"title":"You.Again.Official.Trailer.[HD] ~ cHowZ","uid":5678270,"size":31918990,"categoryP":"other","categoryS":"other","magnet":"?xt=urn:btih:d9d93fb6384c6280e264e10733928f6a5aa5fa7a&amp;dn=You.Again.Official.Trailer.%5BHD%5D+%7E+cHowZ&amp;tr=udp%3A%2F%2Ftracker.openbittorrent.com%3A80&amp;tr=udp%3A%2F%2Fopen.demonii.com%3A1337&amp;tr=udp%3A%2F%2Ftracker.coppersurfer.tk%3A6969&amp;tr=udp%3A%2F%2Fexodus.desync.com%3A6969","seeders":0,"leechers":1,"uploader":null,"files":1,"time":1278694932,"description":"General:\n\nComplete name                    : You Again - Official Trailer [HD] ~ cHowZ.avi\nFormat                           : AVI\nFormat/Info                      : Audio Video Interleave\nFile size                        : 30.4 MiB\nDuration                         : 2mn 30s\nOverall bit rate                 : 1 697 Kbps\n\nIMDB link: http://www.imdb.com/title/tt1414382/\n\nVideo:\n\nID                               : 0\nFormat                           : MPEG-4 Visual\nFormat profile                   : Advanced Simple@L5\nCodec ID                         : XVID\nCodec ID/Hint                    : XviD\nDuration                         : 2mn 30s\nBit rate                         : 1 495 Kbps\nWidth                            : 1 280 pixels\nHeight                           : 544 pixels\nDisplay aspect ratio             : 2.35:1\nFrame rate                       : 24.000 fps\nResolution                       : 8 bits\nColorimetry                      : 4:2:0\nScan type                        : Progressive\nStream size                      : 26.8 MiB (88%)\nWriting library                  : XviD 1.1.2 (UTC 2006-11-01)\n\nAudio:\n\nID                               : 1\nFormat                           : MPEG Audio\nFormat version                   : Version 1\nFormat profile                   : Layer 3\nCodec ID                         : 55\nCodec ID/Hint                    : MP3\nDuration                         : 2mn 30s\nBit rate mode                    : Constant\nBit rate                         : 192 Kbps\nChannel(s)                       : 2 channels\nSampling rate                    : 44.1 KHz\nStream size                      : 3.44 MiB (11%)\nAlignment                        : Split accross interleaves\nInterleave, duration             : 42 ms (1.00 video frame)\nWriting library                  : LAMELAME_MAJOR_VERSI\n\n","torrent":{"xt":"urn:btih:d9d93fb6384c6280e264e10733928f6a5aa5fa7a","amp;dn":"You.Again.Official.Trailer.%5BHD%5D+%7E+cHowZ","amp;tr":["udp%3A%2F%2Ftracker.openbittorrent.com%3A80","udp%3A%2F%2Fopen.demonii.com%3A1337","udp%3A%2F%2Ftracker.coppersurfer.tk%3A6969","udp%3A%2F%2Fexodus.desync.com%3A6969"],"infoHash":"d9d93fb6384c6280e264e10733928f6a5aa5fa7a","infoHashBuffer":{"type":"Buffer","data":[217,217,63,182,56,76,98,128,226,100,225,7,51,146,143,106,90,165,250,122]},"announce":[],"urlList":[]}}